<svg width="151" height="151" viewBox="0 0 151 151" fill="none" xmlns="http://www.w3.org/2000/svg">
<g clip-path="url(#clip0_1272_20137)">
<circle cx="75.5" cy="75.5" r="75" fill="#202020"/>
<mask id="mask0_1272_20137" style="mask-type:alpha" maskUnits="userSpaceOnUse" x="39" y="18" width="64" height="85">
<path d="M57.6944 53.2183C55.0275 50.1898 51.3642 48.3757 49.8658 47.8472L55.1546 43.0202C55.6948 45.7298 58.4909 49.631 59.8214 51.2429L57.6944 53.2183Z" fill="#DCAD3B"/>
<path d="M67.9907 46.848L64.8227 47.7584C64.0408 43.4134 61.9503 40.8995 61.0028 40.1857L66.8314 38.2741C66.2133 40.9365 67.3467 45.0994 67.9907 46.848Z" fill="#DCAD3B"/>
<path d="M74.6426 46.4238C75.2092 41.8925 73.9065 38.9588 73.1843 38.0583L79.7252 38.7243C78.2174 40.1304 77.646 44.6567 77.5488 46.7441L74.6426 46.4238Z" fill="#DCAD3B"/>
<path d="M39.7002 58.0307C48.6577 24.8718 87.3182 17.7961 101.396 18.5489C101.396 18.5489 94.8382 22.4142 91.1757 28.5286C87.1178 35.3031 88.3953 39.8195 88.3953 39.8195C60.08 34.8661 47.7158 48.3181 46.9143 56.0639C46.9143 56.0639 45.9374 55.4811 43.7581 56.0639C40.8741 56.8351 39.7002 58.0307 39.7002 58.0307Z" fill="url(#paint0_linear_1272_20137)"/>
<path d="M84.4125 46.6485C99.2615 50.9609 102.297 71.4157 102.823 78.5545C93.2046 69.6675 80.8806 63.4028 75.6203 70.833C71.4121 76.7771 86.9925 79.6715 95.3088 80.3756L102.823 102.029C100.261 99.8385 96.5208 98.1696 92.1526 96.8862C84.3373 94.2347 79.2274 77.4805 83.5107 94.9245C70.8761 92.7193 56.3435 92.4941 49.1687 91.9579C53.4971 81.0604 52.7256 73.334 51.7988 70.833C57.9308 79.1081 65.8763 83.5079 69.0826 84.6734C63.0708 78.9187 51.1976 65.8941 51.7988 59.8335C52.5503 52.2576 65.8512 41.258 84.4125 46.6485Z" fill="url(#paint1_linear_1272_20137)"/>
</mask>
<g mask="url(#mask0_1272_20137)">
<path d="M104.866 -12.627L114.998 -9.63849L59.7465 116.171L24.0302 102.832L104.866 -12.627Z" fill="url(#paint2_linear_1272_20137)" fill-opacity="0.6"/>
</g>
<g filter="url(#filter0_dd_1272_20137)">
<g filter="url(#filter1_d_1272_20137)">
<path d="M57.6964 53.2185C55.0295 50.19 51.3661 48.3759 49.8678 47.8474L55.1565 43.0204C55.6967 45.73 58.4928 49.6312 59.8233 51.2431L57.6964 53.2185Z" fill="#DCAD3B"/>
</g>
<g filter="url(#filter2_d_1272_20137)">
<path d="M67.9926 46.8482L64.8246 47.7587C64.0428 43.4136 61.9523 40.8997 61.0047 40.1859L66.8333 38.2743C66.2152 40.9368 67.3487 45.0996 67.9926 46.8482Z" fill="#DCAD3B"/>
<path d="M74.6445 46.4241C75.2112 41.8927 73.9084 38.959 73.1862 38.0586L79.7271 38.7246C78.2193 40.1306 77.6479 44.657 77.5507 46.7444L74.6445 46.4241Z" fill="#DCAD3B"/>
</g>
<g filter="url(#filter3_d_1272_20137)">
<path d="M39.7021 58.0309C48.6596 24.8721 87.3201 17.7964 101.398 18.5491C101.398 18.5491 94.8402 22.4144 91.1776 28.5288C87.1197 35.3034 88.3972 39.8197 88.3972 39.8197C60.0819 34.8663 47.7178 48.3183 46.9162 56.0641C46.9162 56.0641 45.9393 55.4813 43.7601 56.0641C40.8761 56.8354 39.7021 58.0309 39.7021 58.0309Z" fill="url(#paint3_linear_1272_20137)"/>
<path d="M84.4144 46.6488C99.2634 50.9611 102.299 71.416 102.825 78.5548C93.2066 69.6677 80.8825 63.4031 75.6223 70.8332C71.4141 76.7773 86.9945 79.6717 95.3107 80.3759L102.825 102.029C100.263 99.8387 96.5228 98.1698 92.1545 96.8865C84.3393 94.2349 79.2293 77.4807 83.5127 94.9247C70.8781 92.7196 56.3455 92.4943 49.1706 91.9582C53.4991 81.0606 52.7276 73.3342 51.8008 70.8332C57.9327 79.1084 65.8783 83.5082 69.0845 84.6737C63.0728 78.919 51.1996 65.8944 51.8008 59.8337C52.5522 52.2579 65.8532 41.2583 84.4144 46.6488Z" fill="url(#paint4_linear_1272_20137)"/>
</g>
</g>
<g filter="url(#filter4_dd_1272_20137)">
<path d="M54.7103 129.444H47.522V121.243C47.522 120.356 47.7859 119.649 48.3137 119.121C48.8626 118.572 49.5487 118.298 50.372 118.298H51.5437C51.6492 118.298 51.702 118.245 51.702 118.139V113.548C51.702 113.442 51.6492 113.389 51.5437 113.389H47.522V110.444H51.7337C52.6203 110.444 53.3381 110.719 53.887 111.268C54.4359 111.796 54.7103 112.503 54.7103 113.389V118.298C54.7103 119.184 54.4359 119.902 53.887 120.451C53.3381 120.979 52.6203 121.243 51.7337 121.243H50.6887C50.5831 121.243 50.5303 121.296 50.5303 121.401V126.499H54.7103V129.444ZM68.2194 110.318C69.0849 110.318 69.7922 110.592 70.3411 111.141C70.9111 111.69 71.1961 112.397 71.1961 113.263V126.499C71.1961 127.344 70.9111 128.051 70.3411 128.621C69.7922 129.17 69.0849 129.444 68.2194 129.444H66.5411C65.6755 129.444 64.9577 129.17 64.3877 128.621C63.8388 128.051 63.5644 127.344 63.5644 126.499V113.263C63.5644 112.397 63.8388 111.69 64.3877 111.141C64.9366 110.571 65.6544 110.297 66.5411 110.318H68.2194ZM66.5094 126.341C66.5094 126.447 66.5622 126.499 66.6677 126.499H68.1561C68.2616 126.499 68.3144 126.447 68.3144 126.341V113.421C68.3144 113.316 68.2616 113.263 68.1561 113.263H66.7311C66.6255 113.263 66.5727 113.316 66.5727 113.421L66.5094 126.341ZM87.259 129.444H80.0706V121.243C80.0706 120.356 80.3345 119.649 80.8623 119.121C81.4112 118.572 82.0973 118.298 82.9206 118.298H84.0923C84.1979 118.298 84.2506 118.245 84.2506 118.139V113.548C84.2506 113.442 84.1979 113.389 84.0923 113.389H80.0706V110.444H84.2823C85.169 110.444 85.8868 110.719 86.4356 111.268C86.9845 111.796 87.259 112.503 87.259 113.389V118.298C87.259 119.184 86.9845 119.902 86.4356 120.451C85.8868 120.979 85.169 121.243 84.2823 121.243H83.2373C83.1317 121.243 83.079 121.296 83.079 121.401V126.499H87.259V129.444ZM103.333 118.298V121.243H103.301V126.468C103.301 127.354 103.027 128.072 102.478 128.621C101.929 129.149 101.211 129.413 100.325 129.413H96.113V126.468H100.135C100.24 126.468 100.293 126.415 100.293 126.309V121.243H97.0314V118.298H100.325V113.548C100.325 113.442 100.272 113.389 100.166 113.389H96.1447V110.444H100.356C101.243 110.444 101.961 110.719 102.51 111.268C103.059 111.796 103.333 112.503 103.333 113.389V118.298Z" fill="url(#paint5_linear_1272_20137)"/>
</g>
</g>
<defs>
<filter id="filter0_dd_1272_20137" x="37.9528" y="17.7678" width="68.6627" height="89.0723" filterUnits="userSpaceOnUse" color-interpolation-filters="sRGB">
<feFlood flood-opacity="0" result="BackgroundImageFix"/>
<feColorMatrix in="SourceAlpha" type="matrix" values="0 0 0 0 0 0 0 0 0 0 0 0 0 0 0 0 0 0 127 0" result="hardAlpha"/>
<feOffset dx="0.291562" dy="0.583125"/>
<feGaussianBlur stdDeviation="0.291562"/>
<feComposite in2="hardAlpha" operator="out"/>
<feColorMatrix type="matrix" values="0 0 0 0 0 0 0 0 0 0 0 0 0 0 0 0 0 0 0.25 0"/>
<feBlend mode="normal" in2="BackgroundImageFix" result="effect1_dropShadow_1272_20137"/>
<feColorMatrix in="SourceAlpha" type="matrix" values="0 0 0 0 0 0 0 0 0 0 0 0 0 0 0 0 0 0 127 0" result="hardAlpha"/>
<feOffset dx="1.02047" dy="2.04094"/>
<feGaussianBlur stdDeviation="1.38492"/>
<feComposite in2="hardAlpha" operator="out"/>
<feColorMatrix type="matrix" values="0 0 0 0 0.0588235 0 0 0 0 0.0588235 0 0 0 0 0.219608 0 0 0 0.95 0"/>
<feBlend mode="normal" in2="effect1_dropShadow_1272_20137" result="effect2_dropShadow_1272_20137"/>
<feBlend mode="normal" in="SourceGraphic" in2="effect2_dropShadow_1272_20137" result="shape"/>
</filter>
<filter id="filter1_d_1272_20137" x="49.285" y="43.0204" width="11.1213" height="11.3644" filterUnits="userSpaceOnUse" color-interpolation-filters="sRGB">
<feFlood flood-opacity="0" result="BackgroundImageFix"/>
<feColorMatrix in="SourceAlpha" type="matrix" values="0 0 0 0 0 0 0 0 0 0 0 0 0 0 0 0 0 0 127 0" result="hardAlpha"/>
<feOffset dy="0.583125"/>
<feGaussianBlur stdDeviation="0.291562"/>
<feComposite in2="hardAlpha" operator="out"/>
<feColorMatrix type="matrix" values="0 0 0 0 0 0 0 0 0 0 0 0 0 0 0 0 0 0 0.25 0"/>
<feBlend mode="normal" in2="BackgroundImageFix" result="effect1_dropShadow_1272_20137"/>
<feBlend mode="normal" in="SourceGraphic" in2="effect1_dropShadow_1272_20137" result="shape"/>
</filter>
<filter id="filter2_d_1272_20137" x="60.4218" y="38.0586" width="19.8889" height="10.8663" filterUnits="userSpaceOnUse" color-interpolation-filters="sRGB">
<feFlood flood-opacity="0" result="BackgroundImageFix"/>
<feColorMatrix in="SourceAlpha" type="matrix" values="0 0 0 0 0 0 0 0 0 0 0 0 0 0 0 0 0 0 127 0" result="hardAlpha"/>
<feOffset dy="0.583125"/>
<feGaussianBlur stdDeviation="0.291562"/>
<feComposite in2="hardAlpha" operator="out"/>
<feColorMatrix type="matrix" values="0 0 0 0 0 0 0 0 0 0 0 0 0 0 0 0 0 0 0.25 0"/>
<feBlend mode="normal" in2="BackgroundImageFix" result="effect1_dropShadow_1272_20137"/>
<feBlend mode="normal" in="SourceGraphic" in2="effect1_dropShadow_1272_20137" result="shape"/>
</filter>
<filter id="filter3_d_1272_20137" x="39.119" y="18.4967" width="64.2893" height="84.6988" filterUnits="userSpaceOnUse" color-interpolation-filters="sRGB">
<feFlood flood-opacity="0" result="BackgroundImageFix"/>
<feColorMatrix in="SourceAlpha" type="matrix" values="0 0 0 0 0 0 0 0 0 0 0 0 0 0 0 0 0 0 127 0" result="hardAlpha"/>
<feOffset dy="0.583125"/>
<feGaussianBlur stdDeviation="0.291562"/>
<feComposite in2="hardAlpha" operator="out"/>
<feColorMatrix type="matrix" values="0 0 0 0 0 0 0 0 0 0 0 0 0 0 0 0 0 0 0.25 0"/>
<feBlend mode="normal" in2="BackgroundImageFix" result="effect1_dropShadow_1272_20137"/>
<feBlend mode="normal" in="SourceGraphic" in2="effect1_dropShadow_1272_20137" result="shape"/>
</filter>
<filter id="filter4_dd_1272_20137" x="46.4562" y="109.842" width="59.1871" height="22.5349" filterUnits="userSpaceOnUse" color-interpolation-filters="sRGB">
<feFlood flood-opacity="0" result="BackgroundImageFix"/>
<feColorMatrix in="SourceAlpha" type="matrix" values="0 0 0 0 0 0 0 0 0 0 0 0 0 0 0 0 0 0 127 0" result="hardAlpha"/>
<feOffset dx="0.177714" dy="0.355428"/>
<feGaussianBlur stdDeviation="0.177714"/>
<feComposite in2="hardAlpha" operator="out"/>
<feColorMatrix type="matrix" values="0 0 0 0 0 0 0 0 0 0 0 0 0 0 0 0 0 0 0.25 0"/>
<feBlend mode="normal" in2="BackgroundImageFix" result="effect1_dropShadow_1272_20137"/>
<feColorMatrix in="SourceAlpha" type="matrix" values="0 0 0 0 0 0 0 0 0 0 0 0 0 0 0 0 0 0 127 0" result="hardAlpha"/>
<feOffset dx="0.622" dy="1.244"/>
<feGaussianBlur stdDeviation="0.844142"/>
<feComposite in2="hardAlpha" operator="out"/>
<feColorMatrix type="matrix" values="0 0 0 0 0.0588235 0 0 0 0 0.0588235 0 0 0 0 0.219608 0 0 0 0.95 0"/>
<feBlend mode="normal" in2="effect1_dropShadow_1272_20137" result="effect2_dropShadow_1272_20137"/>
<feBlend mode="normal" in="SourceGraphic" in2="effect2_dropShadow_1272_20137" result="shape"/>
</filter>
<linearGradient id="paint0_linear_1272_20137" x1="108.072" y1="23.453" x2="52.2408" y2="95.7747" gradientUnits="userSpaceOnUse">
<stop stop-color="#FFE086"/>
<stop offset="1" stop-color="#E9BE4A"/>
</linearGradient>
<linearGradient id="paint1_linear_1272_20137" x1="108.072" y1="23.453" x2="52.2408" y2="95.7747" gradientUnits="userSpaceOnUse">
<stop stop-color="#FFE086"/>
<stop offset="1" stop-color="#E9BE4A"/>
</linearGradient>
<linearGradient id="paint2_linear_1272_20137" x1="100.347" y1="-0.162682" x2="53.8424" y2="92.1168" gradientUnits="userSpaceOnUse">
<stop stop-color="#FFF7BD"/>
<stop offset="1" stop-color="white" stop-opacity="0"/>
</linearGradient>
<linearGradient id="paint3_linear_1272_20137" x1="108.074" y1="23.4533" x2="52.2427" y2="95.7749" gradientUnits="userSpaceOnUse">
<stop stop-color="#FFE086"/>
<stop offset="1" stop-color="#E9BE4A"/>
</linearGradient>
<linearGradient id="paint4_linear_1272_20137" x1="108.074" y1="23.4533" x2="52.2427" y2="95.7749" gradientUnits="userSpaceOnUse">
<stop stop-color="#FFE086"/>
<stop offset="1" stop-color="#E9BE4A"/>
</linearGradient>
<linearGradient id="paint5_linear_1272_20137" x1="75.8887" y1="102.444" x2="75.8887" y2="134.444" gradientUnits="userSpaceOnUse">
<stop stop-color="#EEC556"/>
<stop offset="1" stop-color="#FDE8A0"/>
</linearGradient>
<clipPath id="clip0_1272_20137">
<rect width="150" height="150" fill="white" transform="translate(0.5 0.5)"/>
</clipPath>
</defs>
</svg>

